<svg height="512pt" viewBox="-2 0 511 512" width="512pt" xmlns="http://www.w3.org/2000/svg"><path d="m254.691406 50.609375 77.792969-50.578125h-157.003906zm0 0" fill="#e8dacd"/><path d="m401.941406 45.734375-50.042968-12.78125-97.917969 12.183594-97.207031-12.183594-50.53125 12.746094c-7.1875 1.8125-14.046876 4.796875-20.132813 9.027343-8.003906 5.566407-14.824219 12.75-19.992187 21.144532l-65.242188 106.007812c-.691406 1.121094-.402344 2.582032.660156 3.359375l67.59375 49.324219c1.03125.753906 2.46875.613281 3.335938-.328125l51.894531-56.164063c1.558594-1.6875 4.375-.582031 4.375 1.710938v329.695312c0 1.394532 1.128906 2.523438 2.523437 2.523438h245.449219c1.394531 0 2.523438-1.128906 2.523438-2.523438v-329.695312c0-2.292969 2.816406-3.394531 4.375-1.710938l51.894531 56.164063c.867188.941406 2.304688 1.082031 3.335938.328125l67.59375-49.324219c1.0625-.777343 1.351562-2.238281.660156-3.359375l-65.242188-106.007812c-5.515625-8.960938-12.914062-16.535156-21.621094-22.242188-5.585937-3.664062-11.8125-6.242187-18.285156-7.894531zm0 0" fill="#8f77db"/><path d="m506.429688 185.242188-22.476563 16.394531-83.519531-136.058594c-7.25-11.773437-17.480469-21.351563-29.617188-27.789063l31.121094 7.945313c6.476562 1.652344 12.703125 4.234375 18.292969 7.898437 8.707031 5.707032 16.101562 13.28125 21.609375 22.238282l65.25 106.007812c.691406 1.125.402344 2.578125-.660156 3.363282zm0 0" fill="#716bc1"/><path d="m227.804688 67.292969 23.523437-23.890625h7.765625l22.480469 24.890625v76.652343c0 3.984376-3.230469 7.21875-7.214844 7.21875h-39.339844c-3.984375 0-7.214843-3.234374-7.214843-7.21875zm0 0" fill="#f3cc50"/><path d="m281.578125 68.292969-.003906 76.652343c0 3.984376-3.230469 7.21875-7.214844 7.21875h-10.117187v-99.507812zm0 0" fill="#eeb900"/><path d="m332.484375 0-78.5 46.425781 57.417969 53.683594c2 1.867187 5.230468 1.308594 6.484375-1.125l34.011719-66.066406zm0 0" fill="#f3cc50"/><path d="m351.898438 32.921875-34.015626 66.0625c-1.25 2.433594-4.476562 2.992187-6.476562 1.125l-17.328125-16.195313 43.6875-74.945312zm0 0" fill="#eeb900"/><path d="m176.1875.03125 78.5 45.3125-57.417969 54.796875c-2 1.871094-5.230469 1.308594-6.484375-1.121094l-34.011718-66.066406zm0 0" fill="#f3cc50"/><path d="m156.773438 32.953125 34.015624 66.066406c1.25 2.433594 4.476563 2.988281 6.476563 1.121094l16.71875-15.949219-43.078125-75.1875zm0 0" fill="#eeb900"/><g fill="#8f77db"><path d="m263.644531 89.839844c0 4.949218-4.007812 8.957031-8.953125 8.957031-4.945312 0-8.957031-4.007813-8.957031-8.957031 0-4.945313 4.011719-8.953125 8.957031-8.953125 4.945313 0 8.953125 4.007812 8.953125 8.953125zm0 0"/><path d="m263.644531 121.125c0 4.945312-4.007812 8.953125-8.953125 8.953125-4.945312 0-8.957031-4.007813-8.957031-8.953125 0-4.949219 4.011719-8.957031 8.957031-8.957031 4.945313 0 8.953125 4.007812 8.953125 8.957031zm0 0"/></g></svg>