<?xml version="1.0" standalone="no"?>
<!DOCTYPE svg PUBLIC "-//W3C//DTD SVG 20010904//EN"
 "http://www.w3.org/TR/2001/REC-SVG-20010904/DTD/svg10.dtd">
<svg version="1.0" xmlns="http://www.w3.org/2000/svg"
 width="1920.000000pt" height="1080.000000pt" viewBox="0 0 1920.000000 1080.000000"
 preserveAspectRatio="xMidYMid meet">

<g transform="translate(0.000000,1080.000000) scale(0.100000,-0.100000)"
fill="#000000" stroke="none">
<path d="M17831 7901 c-10 -7 -7 -14 17 -31 36 -27 115 -124 157 -194 17 -27
37 -59 45 -72 25 -38 105 -168 113 -184 4 -8 25 -42 46 -75 22 -33 72 -114
112 -180 64 -106 80 -132 111 -179 5 -6 26 -40 48 -76 22 -36 55 -90 73 -120
19 -30 53 -86 77 -125 23 -38 58 -93 76 -122 19 -28 34 -54 34 -58 0 -4 17
-32 38 -63 20 -31 45 -73 54 -94 9 -21 22 -38 28 -38 9 0 92 81 145 142 10 12
23 17 33 13 55 -23 69 12 21 53 -71 59 -80 71 -74 95 5 20 -4 33 -56 80 -55
51 -61 59 -56 86 5 25 2 33 -23 51 -22 16 -30 30 -30 53 -1 34 -36 81 -84 112
-20 13 -26 26 -26 54 0 28 -7 43 -30 63 -22 19 -30 35 -30 58 0 31 -24 62 -88
112 -14 12 -22 29 -22 50 0 21 -9 41 -26 59 -15 15 -28 43 -30 61 -3 25 -19
47 -64 90 -32 31 -68 62 -80 68 -11 6 -20 17 -20 24 0 7 -11 19 -25 26 -13 7
-27 21 -30 30 -3 9 -17 22 -30 28 -14 6 -25 19 -25 27 0 8 -11 20 -24 26 -13
6 -29 22 -35 36 -9 21 -16 23 -45 18 -30 -6 -37 -3 -57 24 -17 23 -31 31 -54
31 -21 0 -40 9 -55 25 -24 26 -80 34 -109 16z"/>
<path d="M17430 7879 c0 -5 5 -7 10 -4 6 3 10 8 10 11 0 2 -4 4 -10 4 -5 0
-10 -5 -10 -11z"/>
<path d="M17375 7770 c-3 -5 -1 -10 4 -10 6 0 11 5 11 10 0 6 -2 10 -4 10 -3
0 -8 -4 -11 -10z"/>
<path d="M16059 7525 c-13 -25 -14 -34 -3 -55 11 -20 14 -21 19 -8 4 9 5 33 3
54 l-3 39 -16 -30z"/>
<path d="M16395 7489 c-11 -17 1 -21 15 -4 8 9 8 15 2 15 -6 0 -14 -5 -17 -11z"/>
<path d="M16382 7428 c3 -7 13 -15 24 -17 16 -3 17 -1 5 13 -16 19 -34 21 -29
4z"/>
<path d="M16063 7131 c-1 -156 2 -279 5 -275 4 5 5 133 1 284 l-5 275 -1 -284z"/>
<path d="M16896 7392 c-3 -6 -1 -14 5 -17 15 -10 25 3 12 16 -7 7 -13 7 -17 1z"/>
<path d="M16950 7330 c0 -5 5 -10 10 -10 6 0 10 5 10 10 0 6 -4 10 -10 10 -5
0 -10 -4 -10 -10z"/>
<path d="M16405 7160 c-3 -5 1 -10 9 -10 9 0 16 5 16 10 0 6 -4 10 -9 10 -6 0
-13 -4 -16 -10z"/>
<path d="M16377 7113 c-14 -14 -7 -43 11 -43 27 0 32 9 19 31 -13 20 -20 23
-30 12z"/>
<path d="M8652 6588 c-17 -17 -17 -1739 0 -1756 15 -15 281 -17 309 -2 18 10
19 24 19 293 0 278 4 327 39 453 8 28 27 57 64 91 l53 50 124 -5 c70 -2 131
-9 139 -16 8 -6 27 -31 43 -55 l28 -45 0 -369 c0 -235 4 -375 10 -388 10 -17
23 -19 163 -19 125 0 157 3 176 16 l23 17 -5 411 c-4 406 -5 412 -30 494 -14
46 -34 92 -46 103 -11 10 -23 24 -28 31 -18 29 -108 88 -133 88 -15 0 -47 7
-71 16 -53 19 -133 19 -190 -1 -23 -8 -54 -15 -70 -15 -32 0 -131 -70 -176
-125 -30 -36 -74 -58 -98 -49 -19 7 -17 -38 -15 401 l1 373 -26 10 c-38 15
-288 13 -303 -2z"/>
<path d="M1905 6546 c-73 -51 -114 -118 -115 -186 0 -54 50 -150 78 -150 9 0
34 -11 54 -25 46 -31 96 -32 133 -3 16 12 42 29 59 38 17 8 40 35 54 60 34 64
26 131 -23 205 -20 30 -42 55 -50 55 -7 0 -27 11 -43 25 -42 35 -76 31 -147
-19z"/>
<path d="M166 6524 c-3 -9 -6 -91 -6 -184 0 -135 3 -170 15 -180 11 -9 94 -11
332 -9 l318 3 3 -28 c2 -18 -4 -36 -16 -50 -11 -11 -28 -37 -37 -56 -10 -19
-27 -47 -39 -62 -12 -14 -34 -49 -51 -78 -16 -29 -39 -64 -50 -78 -11 -15 -38
-56 -59 -92 -22 -36 -45 -72 -53 -81 -16 -19 -83 -129 -83 -136 0 -3 -13 -21
-30 -40 -16 -18 -30 -39 -31 -46 0 -7 -18 -37 -39 -67 -22 -30 -49 -73 -61
-95 -12 -22 -29 -49 -39 -60 -9 -11 -35 -49 -56 -85 -22 -36 -47 -76 -57 -90
-60 -83 -106 -165 -96 -175 6 -6 245 -11 693 -13 605 -2 685 -1 696 13 18 22
14 314 -4 334 -11 10 -77 13 -340 12 -217 -1 -332 2 -346 9 -26 14 -26 61 0
85 11 10 22 27 26 39 4 11 15 32 26 46 37 49 148 225 148 236 0 6 7 17 15 24
8 7 35 47 61 89 25 42 56 90 67 107 31 44 98 152 122 194 11 20 29 48 40 62
11 15 34 50 50 78 17 29 39 64 51 78 12 15 27 38 34 52 13 25 83 136 126 199
12 18 20 40 17 47 -4 12 -116 14 -673 14 -600 0 -668 -2 -674 -16z"/>
<path d="M7655 6510 c-33 -16 -76 -29 -96 -30 -24 0 -49 -10 -72 -27 -20 -16
-52 -39 -71 -53 -35 -26 -77 -74 -122 -144 -27 -41 -60 -156 -70 -241 -10 -85
39 -249 93 -310 27 -30 115 -91 143 -100 14 -4 37 -18 51 -31 20 -20 38 -25
85 -27 41 -2 69 -9 89 -23 17 -12 49 -24 73 -27 68 -9 195 -121 207 -183 10
-57 -21 -129 -75 -174 l-46 -39 -132 -2 c-120 -3 -134 -1 -154 17 -13 12 -36
26 -53 33 -16 6 -61 41 -100 76 l-70 65 -29 -33 c-15 -17 -36 -48 -45 -67 -9
-19 -24 -46 -34 -60 -10 -14 -31 -46 -48 -72 -37 -57 -31 -75 41 -119 26 -16
51 -36 54 -44 3 -8 16 -15 28 -15 13 0 40 -14 60 -30 27 -22 44 -29 60 -25 16
4 37 -3 68 -24 l45 -30 185 0 c183 0 185 0 223 26 21 15 50 26 68 25 40 -1
145 82 192 152 65 98 80 128 103 219 29 114 30 195 3 292 -36 133 -124 248
-212 277 -17 6 -42 20 -55 32 -19 16 -37 21 -86 22 -46 0 -73 7 -98 22 -18 12
-54 24 -78 28 -25 4 -54 14 -65 24 -11 10 -34 25 -51 33 -17 9 -41 35 -54 60
-22 41 -23 48 -11 88 9 28 31 61 61 92 l47 47 130 0 c125 0 130 -1 153 -25 13
-14 31 -25 40 -25 9 0 27 -11 40 -25 37 -40 54 -32 89 39 17 36 31 71 31 78 0
7 9 27 20 43 25 37 26 87 3 107 -10 9 -34 19 -53 23 -19 4 -48 18 -63 31 -20
17 -41 24 -70 24 -24 0 -78 14 -120 30 -104 40 -170 40 -252 0z"/>
<path d="M14955 6530 c-3 -5 3 -10 14 -10 12 0 21 5 21 10 0 6 -6 10 -14 10
-8 0 -18 -4 -21 -10z"/>
<path d="M15107 6484 c-11 -12 -9 -3534 3 -3534 10 0 20 3489 10 3523 -3 10
-9 15 -13 11z"/>
<path d="M10645 6010 c-33 -16 -77 -29 -97 -30 -24 0 -45 -7 -58 -20 -10 -10
-38 -29 -61 -40 -22 -12 -69 -50 -102 -84 -102 -103 -142 -188 -177 -371 -18
-96 20 -275 83 -384 59 -103 221 -251 275 -251 11 0 46 -13 77 -30 54 -29 63
-30 179 -30 118 0 122 1 165 30 24 17 57 30 73 30 17 0 42 9 56 20 15 12 52
37 82 57 30 20 74 58 97 84 116 128 178 362 139 519 -9 36 -21 83 -27 105 -6
22 -18 51 -27 65 -9 14 -25 42 -35 63 -24 47 -125 150 -169 173 -18 9 -44 26
-58 39 -17 15 -42 24 -75 27 -27 3 -75 17 -106 31 -78 38 -153 36 -234 -3z
m280 -326 c19 -16 49 -53 66 -83 28 -49 31 -62 31 -145 0 -80 -3 -97 -26 -138
-15 -25 -45 -62 -66 -82 -41 -37 -44 -37 -165 -37 -22 0 -57 1 -77 1 -44 0
-98 43 -148 118 -31 46 -31 49 -28 152 3 118 16 146 94 211 l40 34 121 -1
c117 -2 123 -3 158 -30z"/>
<path d="M3245 5994 c-27 -8 -66 -13 -86 -12 -30 1 -46 -6 -94 -47 -31 -27
-81 -76 -110 -108 -47 -52 -57 -58 -87 -55 l-33 3 -3 93 c-4 123 -7 125 -170
120 -82 -2 -124 -7 -135 -17 -15 -12 -17 -65 -17 -566 0 -501 2 -554 17 -566
12 -11 54 -14 172 -14 l156 0 5 335 c5 328 6 336 30 399 14 36 42 83 65 107
l40 43 129 4 c123 4 129 3 156 -19 15 -13 38 -47 51 -76 24 -52 24 -57 26
-413 2 -327 4 -361 20 -372 12 -9 61 -13 159 -13 116 0 145 3 158 16 14 13 16
62 16 387 0 205 -4 411 -9 458 -12 111 -47 176 -137 253 -56 48 -68 54 -97 50
-17 -3 -52 2 -76 10 -52 19 -79 19 -146 0z"/>
<path d="M4473 6000 c-12 -5 -57 -12 -100 -16 -61 -5 -84 -12 -106 -30 -16
-13 -33 -24 -38 -24 -17 0 -117 -100 -148 -149 -70 -109 -109 -300 -92 -450
11 -100 50 -229 80 -267 12 -15 21 -32 21 -40 0 -24 100 -122 143 -139 23 -9
52 -26 65 -38 22 -20 34 -22 166 -22 141 0 143 0 175 28 18 15 42 27 54 27 13
0 46 22 78 53 68 65 84 72 115 52 22 -14 24 -22 24 -105 0 -151 -57 -269 -141
-290 -19 -5 -60 -16 -93 -26 -58 -17 -59 -17 -100 3 -22 12 -54 24 -70 28 -17
3 -45 20 -64 36 l-33 29 -172 -2 c-170 -3 -172 -3 -175 -26 -11 -78 129 -230
226 -246 24 -3 61 -18 83 -33 39 -26 40 -26 247 -27 l207 0 43 27 c23 15 64
30 90 34 26 3 56 14 67 23 11 10 35 25 53 34 79 40 137 146 160 294 17 104 17
1223 0 1240 -8 8 -56 12 -149 12 -164 0 -173 -4 -163 -80 14 -105 -44 -122
-130 -37 -97 94 -121 109 -181 113 -30 1 -63 8 -74 13 -23 13 -38 13 -68 1z
m349 -323 c21 -17 53 -55 70 -86 32 -54 33 -61 33 -161 0 -97 -2 -109 -28
-155 -16 -27 -47 -67 -70 -87 l-42 -37 -140 -1 -140 0 -64 57 c-150 134 -152
307 -5 448 l57 54 106 3 c151 4 180 0 223 -35z"/>
<path d="M6023 6000 c-12 -5 -57 -12 -100 -16 -75 -7 -79 -9 -156 -68 -44 -33
-91 -78 -105 -101 -14 -22 -33 -51 -42 -65 -20 -31 -53 -140 -70 -237 -35
-197 38 -464 163 -593 72 -74 114 -100 164 -100 24 0 67 -7 94 -16 48 -16 53
-16 122 5 40 11 84 21 99 21 15 0 30 5 33 10 4 6 25 23 48 37 23 14 62 46 87
70 46 44 84 55 108 31 7 -7 12 -39 12 -73 0 -34 5 -66 12 -73 8 -8 56 -12 148
-12 92 0 140 4 148 12 17 17 17 1129 0 1146 -8 8 -56 12 -148 12 -92 0 -140
-4 -148 -12 -7 -7 -12 -39 -12 -73 0 -113 -37 -122 -131 -33 -95 91 -132 117
-161 111 -14 -3 -51 2 -81 11 -30 9 -57 16 -59 15 -1 0 -13 -4 -25 -9z m343
-330 c27 -24 63 -67 79 -95 28 -47 30 -57 30 -150 0 -93 -2 -104 -30 -150 -50
-84 -91 -117 -160 -128 -133 -21 -235 -6 -288 43 -49 44 -97 142 -104 213 -11
104 37 213 121 278 l43 34 130 0 130 0 49 -45z"/>
<path d="M12395 5991 c-16 -5 -49 -9 -71 -10 -25 -1 -47 -8 -55 -17 -8 -9 -30
-27 -50 -39 -19 -13 -53 -40 -75 -60 -46 -43 -65 -55 -93 -55 -29 0 -41 29
-41 97 0 33 -5 64 -12 71 -8 8 -56 12 -148 12 -92 0 -140 -4 -148 -12 -17 -17
-17 -1629 0 -1646 20 -20 277 -16 306 4 l23 16 -2 315 c-2 336 -2 332 47 333
25 0 44 -15 73 -57 12 -17 38 -42 59 -54 20 -12 44 -31 54 -43 15 -19 26 -20
184 -19 153 2 170 4 193 22 14 12 40 27 56 34 81 37 185 200 230 360 24 86 27
112 23 200 -9 204 -106 419 -213 474 -16 8 -41 26 -55 38 -25 23 -40 26 -200
39 -30 3 -68 1 -85 -3z m92 -319 c25 -21 56 -63 77 -104 33 -64 36 -78 36
-153 0 -45 -6 -100 -14 -121 -19 -56 -68 -124 -114 -161 -39 -31 -42 -32 -167
-37 l-127 -5 -55 51 c-31 30 -66 76 -81 108 -23 48 -27 67 -27 155 0 126 21
180 105 259 l57 55 134 -6 134 -6 42 -35z"/>
<path d="M1827 5972 c-15 -17 -17 -71 -17 -569 0 -520 1 -551 18 -566 15 -14
42 -17 158 -17 97 0 146 4 157 13 16 11 18 54 18 572 0 518 -2 561 -18 572
-12 9 -61 13 -158 13 -125 0 -144 -2 -158 -18z"/>
</g>
</svg>
